HIERARCHY
ROOT Hips
{
  OFFSET 5.80788e-005 67.184 3.4734
  CHANNELS 6 Xposition Yposition Zposition Zrotation Xrotation Yrotation
  JOINT Chest
  {
    OFFSET 0 8.7983 -4.7612
    CHANNELS 6 Xposition Yposition Zposition Zrotation Xrotation Yrotation
    JOINT Chest2
    {
      OFFSET 0 8.0291 0.4195
      CHANNELS 6 Xposition Yposition Zposition Zrotation Xrotation Yrotation
      JOINT Chest3
      {
        OFFSET 0 9.9351 -2.2114
        CHANNELS 6 Xposition Yposition Zposition Zrotation Xrotation Yrotation
        JOINT Neck
        {
          OFFSET 0 22.3885 -0.4656
          CHANNELS 6 Xposition Yposition Zposition Zrotation Xrotation Yrotation
          JOINT Head
          {
            OFFSET -0.0001 12.643 3.4389
            CHANNELS 6 Xposition Yposition Zposition Zrotation Xrotation Yrotation
            End Site
            {
              OFFSET 0.0001 17.6655 0.5274
            }
          }
        }
        JOINT LeftCollar
        {
          OFFSET 2.2603 21.606 7.4023
          CHANNELS 6 Xposition Yposition Zposition Zrotation Xrotation Yrotation
          JOINT LeftShoulder
          {
            OFFSET 13.5163 -1.1332 -5.0146
            CHANNELS 6 Xposition Yposition Zposition Zrotation Xrotation Yrotation
            JOINT LeftElbow
            {
              OFFSET -0.0995 -28.05 -0.2431
              CHANNELS 6 Xposition Yposition Zposition Zrotation Xrotation Yrotation
              JOINT LeftWrist
              {
                OFFSET 0.0679 -23.3996 -0.1402
                CHANNELS 6 Xposition Yposition Zposition Zrotation Xrotation Yrotation
                JOINT LeftFinger1
                {
                  OFFSET 0.7932 -9.069 2.5189
                  CHANNELS 6 Xposition Yposition Zposition Zrotation Xrotation Yrotation
                  JOINT LeftFinger11
                  {
                    OFFSET -0.8272 -3.3923 0.5977
                    CHANNELS 6 Xposition Yposition Zposition Zrotation Xrotation Yrotation
                    JOINT LeftFinger12
                    {
                      OFFSET -0.5649 -2.3158 0.4082
                      CHANNELS 6 Xposition Yposition Zposition Zrotation Xrotation Yrotation
                      End Site
                      {
                        OFFSET -0.4919 -1.6479 0.2673
                      }
                    }
                  }
                }
                JOINT LeftFinger2
                {
                  OFFSET 0.9159 -9.2044 0.2193
                  CHANNELS 6 Xposition Yposition Zposition Zrotation Xrotation Yrotation
                  JOINT LeftFinger21
                  {
                    OFFSET 0.0117 -4.1944 -0.0248
                    CHANNELS 6 Xposition Yposition Zposition Zrotation Xrotation Yrotation
                    JOINT LeftFinger22
                    {
                      OFFSET 0.0071 -2.3249 -0.0142
                      CHANNELS 6 Xposition Yposition Zposition Zrotation Xrotation Yrotation
                      End Site
                      {
                        OFFSET -0.1475 -2.0882 0.0028
                      }
                    }
                  }
                }
                JOINT LeftFinger3
                {
                  OFFSET 0.6113 -8.7231 -2.0637
                  CHANNELS 6 Xposition Yposition Zposition Zrotation Xrotation Yrotation
                  JOINT LeftFinger31
                  {
                    OFFSET -0.1927 -3.8059 -0.2383
                    CHANNELS 6 Xposition Yposition Zposition Zrotation Xrotation Yrotation
                    JOINT LeftFinger32
                    {
                      OFFSET -0.1091 -2.1688 -0.1362
                      CHANNELS 6 Xposition Yposition Zposition Zrotation Xrotation Yrotation
                      End Site
                      {
                        OFFSET -0.2358 -1.9176 -0.0906
                      }
                    }
                  }
                }
                JOINT LeftFinger4
                {
                  OFFSET -0.6151 -8.0947 -3.5641
                  CHANNELS 6 Xposition Yposition Zposition Zrotation Xrotation Yrotation
                  JOINT LeftFinger41
                  {
                    OFFSET -0.4882 -2.341 -0.6462
                    CHANNELS 6 Xposition Yposition Zposition Zrotation Xrotation Yrotation
                    JOINT LeftFinger42
                    {
                      OFFSET -0.3575 -1.7167 -0.4742
                      CHANNELS 6 Xposition Yposition Zposition Zrotation Xrotation Yrotation
                      End Site
                      {
                        OFFSET -0.4187 -1.5237 -0.3496
                      }
                    }
                  }
                }
                JOINT LeftFinger0
                {
                  OFFSET -1.42 -1.8761 1.4223
                  CHANNELS 6 Xposition Yposition Zposition Zrotation Xrotation Yrotation
                  JOINT LeftFinger01
                  {
                    OFFSET -1.1471 -3.4929 2.6334
                    CHANNELS 6 Xposition Yposition Zposition Zrotation Xrotation Yrotation
                    JOINT LeftFinger02
                    {
                      OFFSET -0.823 -2.3 1.6571
                      CHANNELS 6 Xposition Yposition Zposition Zrotation Xrotation Yrotation
                      End Site
                      {
                        OFFSET -0.5822 -1.6914 1.1582
                      }
                    }
                  }
                }
              }
            }
          }
        }
        JOINT RightCollar
        {
          OFFSET -2.2603 21.606 7.4023
          CHANNELS 6 Xposition Yposition Zposition Zrotation Xrotation Yrotation
          JOINT RightShoulder
          {
            OFFSET -13.5187 -1.1334 -5.0155
            CHANNELS 6 Xposition Yposition Zposition Zrotation Xrotation Yrotation
            JOINT RightElbow
            {
              OFFSET 0.0994 -28.0499 -0.2431
              CHANNELS 6 Xposition Yposition Zposition Zrotation Xrotation Yrotation
              JOINT RightWrist
              {
                OFFSET -0.0679 -23.3996 -0.1402
                CHANNELS 6 Xposition Yposition Zposition Zrotation Xrotation Yrotation
                JOINT RightFinger1
                {
                  OFFSET -0.7932 -9.0691 2.5189
                  CHANNELS 6 Xposition Yposition Zposition Zrotation Xrotation Yrotation
                  JOINT RightFinger11
                  {
                    OFFSET 0.8272 -3.3923 0.5977
                    CHANNELS 6 Xposition Yposition Zposition Zrotation Xrotation Yrotation
                    JOINT RightFinger12
                    {
                      OFFSET 0.565 -2.3158 0.4082
                      CHANNELS 6 Xposition Yposition Zposition Zrotation Xrotation Yrotation
                      End Site
                      {
                        OFFSET 0.4919 -1.6479 0.2673
                      }
                    }
                  }
                }
                JOINT RightFinger2
                {
                  OFFSET -0.916 -9.2044 0.2193
                  CHANNELS 6 Xposition Yposition Zposition Zrotation Xrotation Yrotation
                  JOINT RightFinger21
                  {
                    OFFSET -0.0117 -4.1944 -0.0248
                    CHANNELS 6 Xposition Yposition Zposition Zrotation Xrotation Yrotation
                    JOINT RightFinger22
                    {
                      OFFSET -0.0071 -2.3249 -0.0142
                      CHANNELS 6 Xposition Yposition Zposition Zrotation Xrotation Yrotation
                      End Site
                      {
                        OFFSET 0.1475 -2.0882 0.0028
                      }
                    }
                  }
                }
                JOINT RightFinger3
                {
                  OFFSET -0.6113 -8.7231 -2.0637
                  CHANNELS 6 Xposition Yposition Zposition Zrotation Xrotation Yrotation
                  JOINT RightFinger31
                  {
                    OFFSET 0.1927 -3.8059 -0.2383
                    CHANNELS 6 Xposition Yposition Zposition Zrotation Xrotation Yrotation
                    JOINT RightFinger32
                    {
                      OFFSET 0.1091 -2.1688 -0.1362
                      CHANNELS 6 Xposition Yposition Zposition Zrotation Xrotation Yrotation
                      End Site
                      {
                        OFFSET 0.2358 -1.9176 -0.0906
                      }
                    }
                  }
                }
                JOINT RightFinger4
                {
                  OFFSET 0.6151 -8.0947 -3.564
                  CHANNELS 6 Xposition Yposition Zposition Zrotation Xrotation Yrotation
                  JOINT RightFinger41
                  {
                    OFFSET 0.4882 -2.341 -0.6462
                    CHANNELS 6 Xposition Yposition Zposition Zrotation Xrotation Yrotation
                    JOINT RightFinger42
                    {
                      OFFSET 0.3574 -1.7166 -0.4742
                      CHANNELS 6 Xposition Yposition Zposition Zrotation Xrotation Yrotation
                      End Site
                      {
                        OFFSET 0.4187 -1.5237 -0.3496
                      }
                    }
                  }
                }
                JOINT RightFinger0
                {
                  OFFSET 1.4199 -1.8761 1.4221
                  CHANNELS 6 Xposition Yposition Zposition Zrotation Xrotation Yrotation
                  JOINT RightFinger01
                  {
                    OFFSET 1.1472 -3.4929 2.6336
                    CHANNELS 6 Xposition Yposition Zposition Zrotation Xrotation Yrotation
                    JOINT RightFinger02
                    {
                      OFFSET 0.8229 -2.3 1.6571
                      CHANNELS 6 Xposition Yposition Zposition Zrotation Xrotation Yrotation
                      End Site
                      {
                        OFFSET 0.5822 -1.6914 1.1582
                      }
                    }
                  }
                }
              }
            }
          }
        }
      }
    }
  }
  JOINT RightHip
  {
    OFFSET -9.412 3.9771 -0.7758
    CHANNELS 6 Xposition Yposition Zposition Zrotation Xrotation Yrotation
    JOINT RightKnee
    {
      OFFSET -0.7531 -40.938 0
      CHANNELS 6 Xposition Yposition Zposition Zrotation Xrotation Yrotation
      JOINT RightAnkle
      {
        OFFSET 0 -40.1986 0
        CHANNELS 6 Xposition Yposition Zposition Zrotation Xrotation Yrotation
        JOINT RightToe
        {
          OFFSET 0 -4.4182 9.239
          CHANNELS 6 Xposition Yposition Zposition Zrotation Xrotation Yrotation
          End Site
          {
            OFFSET 0 0 6.1981
          }
        }
      }
    }
  }
  JOINT LeftHip
  {
    OFFSET 9.4119 3.9773 -0.7758
    CHANNELS 6 Xposition Yposition Zposition Zrotation Xrotation Yrotation
    JOINT LeftKnee
    {
      OFFSET 0.7532 -40.9383 0
      CHANNELS 6 Xposition Yposition Zposition Zrotation Xrotation Yrotation
      JOINT LeftAnkle
      {
        OFFSET 0 -40.1986 0
        CHANNELS 6 Xposition Yposition Zposition Zrotation Xrotation Yrotation
        JOINT LeftToe
        {
          OFFSET 0 -4.4182 9.239
          CHANNELS 6 Xposition Yposition Zposition Zrotation Xrotation Yrotation
          End Site
          {
            OFFSET 0 0 6.1981
          }
        }
      }
    }
  }
}
MOTION
Frames:	4
Frame Time:	0.0333333
5.80788e-005 67.184 3.4734 0 0 -0 0 8.7983 -4.7612 0 0 -0 0 8.0291 0.4195 0 0 -0 0 9.9351 -2.2114 0 0 -0 0 22.3885 -0.4656 0 0 -0 -0.0001 12.643 3.4389 0.00296843 0 -0 2.2603 21.606 7.4023 0 0 -12.5014 13.5163 -1.1332 -5.0146 88.1196 14.2451 10.6914 -0.0995 -28.05 -0.2431 -0.00160068 -0.00239207 0.000740045 0.0679 -23.3996 -0.1402 -8.4365e-005 7.00714e-005 -9.52055e-007 0.7932 -9.069 2.5189 9.93923e-017 -1.98785e-016 -1.59028e-015 -0.8272 -3.3923 0.5977 9.93923e-017 -5.96354e-016 -1.59028e-015 -0.5649 -2.3158 0.4082 -9.93923e-017 -5.96354e-016 -1.59028e-015 0.9159 -9.2044 0.2193 9.93923e-017 -1.98785e-016 -1.59028e-015 0.0117 -4.1944 -0.0248 -0.0128176 0.00232552 8.52707e-005 0.0071 -2.3249 -0.0142 9.93923e-017 5.96354e-016 -0 0.6113 -8.7231 -2.0637 9.93923e-017 -1.98785e-016 -1.59028e-015 -0.1927 -3.8059 -0.2383 -0.0160551 0.00299681 0.000857156 -0.1091 -2.1688 -0.1362 -2.48481e-016 0 3.18055e-015 -0.6151 -8.0947 -3.5641 9.93923e-017 -1.98785e-016 -1.59028e-015 -0.4882 -2.341 -0.6462 -0.0125865 0.0031206 0.00282719 -0.3575 -1.7167 -0.4742 0 1.98785e-016 -0 -1.42 -1.8761 1.4223 9.93923e-017 -1.98785e-016 -1.59028e-015 -1.1471 -3.4929 2.6334 9.93923e-017 -5.96354e-016 -1.59028e-015 -0.823 -2.3 1.6571 -9.93923e-017 -5.96354e-016 -1.59028e-015 -2.2603 21.606 7.4023 -0.865644 0.16582 7.03859 -13.5187 -1.1334 -5.0155 -88.0329 10.2057 -10.5567 0.0994 -28.0499 -0.2431 0.0015593 -0.00248883 -0.000788628 -0.0679 -23.3996 -0.1402 7.87605e-005 4.10553e-005 1.24965e-005 -0.7932 -9.0691 2.5189 -3.97569e-016 -7.95139e-016 3.18055e-015 0.8272 -3.3923 0.5977 -1.98785e-016 -3.97569e-016 3.18055e-015 0.565 -2.3158 0.4082 -1.98785e-016 0 3.18055e-015 -0.916 -9.2044 0.2193 -3.97569e-016 -7.95139e-016 3.18055e-015 -0.0117 -4.1944 -0.0248 0.0129473 0.00231697 -8.70038e-005 -0.0071 -2.3249 -0.0142 9.93923e-017 -7.95139e-016 1.59028e-015 -0.6113 -8.7231 -2.0637 -3.97569e-016 -7.95139e-016 3.18055e-015 0.1927 -3.8059 -0.2383 0.0163314 0.00303369 -0.000872333 0.1091 -2.1688 -0.1362 3.97569e-016 7.95139e-016 -3.18055e-015 0.6151 -8.0947 -3.564 -3.97569e-016 -7.95139e-016 3.18055e-015 0.4882 -2.341 -0.6462 0.0145763 0.00367772 -0.00326275 0.3574 -1.7166 -0.4742 9.93923e-017 -3.97569e-016 -0 1.4199 -1.8761 1.4221 -3.97569e-016 -7.95139e-016 3.18055e-015 1.1472 -3.4929 2.6336 -1.98785e-016 -3.97569e-016 3.18055e-015 0.8229 -2.3 1.6571 -1.98785e-016 0 3.18055e-015 -9.412 3.9771 -0.7758 3.42485 1.36937 -0.0640303 -0.7531 -40.938 0 0.000136572 0.69354 0.00145564 1.77636e-015 -40.1986 -1.11022e-016 -3.42573 -2.06297 -0.0607933 8.88178e-016 -4.4182 9.239 -3.19502e-024 0 -1.48106e-024 9.4119 3.9773 -0.7758 -3.42498 1.36123 0.0639712 0.7532 -40.9383 2.22045e-016 -6.769e-005 0.712612 -0.0012277 8.88179e-016 -40.1986 0 3.42582 -2.07388 0.0612819 -8.88178e-016 -4.4182 9.239 2.55305e-023 0 -2.31416e-026 
15.8775 7.60984 22.3819 -0 -33.0001 -0 0 8.7983 -4.7612 0 15.5995 -0 0 8.0291 0.4195 0 31.1991 -0 0 9.9351 -2.2114 0 31.1989 -0 0 22.3885 -0.4656 0 30.9979 -0 -0.0001 12.643 3.4389 0.00379783 0.274514 -0.173106 2.2603 21.606 7.4023 7.84599e-007 -0.00126086 -12.5014 13.5163 -1.1332 -5.0146 10.4372 9.20214 22.8231 -0.0995 -28.05 -0.2431 -52.0659 -75.1824 -44.3318 0.0679 -23.3996 -0.1402 24.6582 -4.16387 1.68522 0.7932 -9.069 2.5189 -1.59028e-015 6.36111e-015 -7.95139e-015 -0.8272 -3.3923 0.5977 7.95139e-016 0 -6.36111e-015 -0.5649 -2.3158 0.4082 2.38542e-015 9.54166e-015 -6.36111e-015 0.9159 -9.2044 0.2193 -1.59028e-015 6.36111e-015 -7.95139e-015 0.0117 -4.1944 -0.0248 -0.0128227 0.00232103 8.34604e-005 0.0071 -2.3249 -0.0142 -1.32966e-006 9.97956e-007 1.92625e-007 0.6113 -8.7231 -2.0637 -1.59028e-015 6.36111e-015 -7.95139e-015 -0.1927 -3.8059 -0.2383 -0.0160482 0.00299582 0.000856541 -0.1091 -2.1688 -0.1362 -2.38542e-015 0 1.59028e-015 -0.6151 -8.0947 -3.5641 -1.59028e-015 6.36111e-015 -7.95139e-015 -0.4882 -2.341 -0.6462 -0.0125291 0.00310334 0.00281204 -0.3575 -1.7167 -0.4742 1.76556e-031 -6.36111e-015 1.59028e-015 -1.42 -1.8761 1.4223 -1.59028e-015 6.36111e-015 -7.95139e-015 -1.1471 -3.4929 2.6334 7.95139e-016 0 -6.36111e-015 -0.823 -2.3 1.6571 2.38542e-015 9.54166e-015 -6.36111e-015 -2.2603 21.606 7.4023 -0.870901 0.134269 9.03705 -13.5187 -1.1334 -5.0155 -7.27961 -41.3702 9.8647 0.0994 -28.0499 -0.2431 6.88634 -9.85089 2.54753 -0.0679 -23.3996 -0.1402 13.7412 2.7063 17.5004 -0.7932 -9.0691 2.5189 -1.58473e-006 2.09443e-006 3.15942e-007 0.8272 -3.3923 0.5977 3.93874e-006 -1.87313e-008 3.99623e-006 0.565 -2.3158 0.4082 6.82701e-006 -3.38122e-007 5.90649e-006 -0.916 -9.2044 0.2193 -1.58473e-006 2.09443e-006 3.15942e-007 -0.0117 -4.1944 -0.0248 0.0129473 0.00231734 -8.80061e-005 -0.0071 -2.3249 -0.0142 -1.19271e-015 -2.38542e-015 -3.18055e-015 -0.6113 -8.7231 -2.0637 -1.58473e-006 2.09443e-006 3.15942e-007 0.1927 -3.8059 -0.2383 0.0163352 0.00303634 -0.0008755 0.1091 -2.1688 -0.1362 -0 -7.95139e-016 -0 0.6151 -8.0947 -3.564 -1.58473e-006 2.09443e-006 3.15942e-007 0.4882 -2.341 -0.6462 0.0145988 0.00368131 -0.003271 0.3574 -1.7166 -0.4742 -9.38377e-006 3.25572e-006 1.96555e-006 1.4199 -1.8761 1.4221 -1.58473e-006 2.09443e-006 3.15942e-007 1.1472 -3.4929 2.6336 3.93874e-006 -1.87313e-008 3.99623e-006 0.8229 -2.3 1.6571 6.82701e-006 -3.38122e-007 5.90649e-006 -9.412 3.9771 -0.7758 -49.1634 -9.05295 7.05497 -0.7531 -40.938 -3.55271e-015 179.904 39.7401 175.021 -2.22045e-015 -40.1986 -3.55271e-015 -1.73435 12.5472 -3.16957 -8.88179e-016 -4.4182 9.239 -1.19755e-007 2.59991e-006 -3.46725e-006 9.4119 3.9773 -0.7758 42.9239 -21.6149 1.62082 0.7532 -40.9383 -3.55271e-015 -179.835 31.4114 -173.183 1.77636e-015 -40.1986 0 -2.16336 39.7184 5.83947 3.55272e-015 -4.4182 9.239 -9.9398e-006 -5.96262e-006 5.09494e-007 
15.881 8.06597 22.3873 -0 -33.0001 -0 0 8.7983 -4.7612 0 15.5995 -0 0 8.0291 0.4195 0 31.1991 -0 0 9.9351 -2.2114 0 31.1989 -0 0 22.3885 -0.4656 0 30.9979 -0 -0.0001 12.643 3.4389 -0.00296985 -2.01978 -0.168489 2.2603 21.606 7.4023 -3.62473e-007 -0.0012878 -12.5014 13.5163 -1.1332 -5.0146 10.4372 9.20211 22.8231 -0.0995 -28.05 -0.2431 -55.3998 -75.743 -47.5911 0.0679 -23.3996 -0.1402 23.9927 -4.06308 1.61701 0.7932 -9.069 2.5189 -1.03591e-006 -1.9888e-006 -4.47586e-006 -0.8272 -3.3923 0.5977 1.6714e-005 -1.28372e-005 -1.88629e-007 -0.5649 -2.3158 0.4082 -4.47928e-006 1.5305e-005 -4.02938e-006 0.9159 -9.2044 0.2193 -1.03591e-006 -1.9888e-006 -4.47586e-006 0.0117 -4.1944 -0.0248 -0.0128189 0.0023217 8.06695e-005 0.0071 -2.3249 -0.0142 9.50765e-007 5.78258e-006 -1.97446e-007 0.6113 -8.7231 -2.0637 -1.03591e-006 -1.9888e-006 -4.47586e-006 -0.1927 -3.8059 -0.2383 -0.0160867 0.00301198 0.000852353 -0.1091 -2.1688 -0.1362 -1.59028e-015 -1.22504e-008 -3.18055e-015 -0.6151 -8.0947 -3.5641 -1.03591e-006 -1.9888e-006 -4.47586e-006 -0.4882 -2.341 -0.6462 -0.0125852 0.00312058 0.0028284 -0.3575 -1.7167 -0.4742 3.9519e-006 2.73956e-006 -2.14631e-006 -1.42 -1.8761 1.4223 -1.03591e-006 -1.9888e-006 -4.47586e-006 -1.1471 -3.4929 2.6334 1.6714e-005 -1.28372e-005 -1.88629e-007 -0.823 -2.3 1.6571 -4.47928e-006 1.5305e-005 -4.02938e-006 -2.2603 21.606 7.4023 -0.870901 0.134245 9.03705 -13.5187 -1.1334 -5.0155 -7.28049 -41.3701 9.86413 0.0994 -28.0499 -0.2431 6.88695 -9.85107 2.54751 -0.0679 -23.3996 -0.1402 13.7412 2.70634 17.5004 -0.7932 -9.0691 2.5189 -6.54579e-006 2.3049e-006 -8.44863e-006 0.8272 -3.3923 0.5977 9.37079e-006 1.74487e-006 1.03238e-005 0.565 -2.3158 0.4082 -1.09555e-005 -2.47659e-007 -1.00079e-005 -0.916 -9.2044 0.2193 -6.54579e-006 2.3049e-006 -8.44863e-006 -0.0117 -4.1944 -0.0248 0.0129464 0.00232053 -8.04116e-005 -0.0071 -2.3249 -0.0142 4.75387e-006 -5.97734e-006 -9.4763e-007 -0.6113 -8.7231 -2.0637 -6.54579e-006 2.3049e-006 -8.44863e-006 0.1927 -3.8059 -0.2383 0.0163437 0.00303054 -0.000857546 0.1091 -2.1688 -0.1362 -3.16919e-006 5.75954e-007 6.31699e-007 0.6151 -8.0947 -3.564 -6.54579e-006 2.3049e-006 -8.44863e-006 0.4882 -2.341 -0.6462 0.014608 0.00368743 -0.00325806 0.3574 -1.7166 -0.4742 2.81945e-007 -3.59849e-006 -2.54225e-006 1.4199 -1.8761 1.4221 -6.54579e-006 2.3049e-006 -8.44863e-006 1.1472 -3.4929 2.6336 9.37079e-006 1.74487e-006 1.03238e-005 0.8229 -2.3 1.6571 -1.09555e-005 -2.47659e-007 -1.00079e-005 -9.412 3.9771 -0.7758 -47.9843 -9.30833 7.34413 -0.7531 -40.938 -3.55271e-015 179.905 39.745 175.03 -1.33227e-015 -40.1986 3.55271e-015 -1.73211 12.4907 -3.1645 1.33227e-015 -4.4182 9.239 7.37749e-006 4.62248e-006 -8.78994e-006 9.4119 3.9773 -0.7758 41.589 -21.304 0.471268 0.7532 -40.9383 -1.77636e-015 -179.838 31.8696 -173.309 1.77636e-015 -40.1986 -3.55271e-015 -2.08734 39.6284 5.7259 1.77636e-015 -4.4182 9.239 3.18055e-015 -3.18055e-015 -4.77083e-015 
15.8845 8.52216 22.3928 -0 -33.0001 -0 0 8.7983 -4.7612 0 15.5995 -0 0 8.0291 0.4195 0 31.1991 -0 0 9.9351 -2.2114 0 31.1989 -0 0 22.3885 -0.4656 0 30.9979 -0 -0.0001 12.643 3.4389 -0.00621585 -4.34278 -0.163941 2.2603 21.606 7.4023 -3.62473e-007 -0.0012878 -12.5014 13.5163 -1.1332 -5.0146 10.4372 9.20213 22.8231 -0.0995 -28.05 -0.2431 -59.0066 -76.2554 -51.1231 0.0679 -23.3996 -0.1402 23.3261 -3.96128 1.54981 0.7932 -9.069 2.5189 1.59028e-015 0 -1.59028e-015 -0.8272 -3.3923 0.5977 -7.95139e-016 0 4.77083e-015 -0.5649 -2.3158 0.4082 -7.95139e-016 3.18055e-015 3.18055e-015 0.9159 -9.2044 0.2193 1.59028e-015 0 -1.59028e-015 0.0117 -4.1944 -0.0248 -0.0128033 0.00231939 8.88298e-005 0.0071 -2.3249 -0.0142 6.40555e-008 -9.61576e-006 -6.76713e-007 0.6113 -8.7231 -2.0637 1.59028e-015 0 -1.59028e-015 -0.1927 -3.8059 -0.2383 -0.0160283 0.00298473 0.000857808 -0.1091 -2.1688 -0.1362 -6.3221e-008 5.41797e-006 6.76511e-007 -0.6151 -8.0947 -3.5641 1.59028e-015 0 -1.59028e-015 -0.4882 -2.341 -0.6462 -0.0126463 0.00313347 0.00283934 -0.3575 -1.7167 -0.4742 -7.95139e-016 -3.18055e-015 -4.77083e-015 -1.42 -1.8761 1.4223 1.59028e-015 0 -1.59028e-015 -1.1471 -3.4929 2.6334 -7.95139e-016 0 4.77083e-015 -0.823 -2.3 1.6571 -7.95139e-016 3.18055e-015 3.18055e-015 -2.2603 21.606 7.4023 -0.870901 0.134245 9.03705 -13.5187 -1.1334 -5.0155 -7.28049 -41.3701 9.86413 0.0994 -28.0499 -0.2431 6.88695 -9.85107 2.54751 -0.0679 -23.3996 -0.1402 13.7412 2.70634 17.5004 -0.7932 -9.0691 2.5189 -6.54579e-006 2.3049e-006 -8.44863e-006 0.8272 -3.3923 0.5977 9.37079e-006 1.74487e-006 1.03238e-005 0.565 -2.3158 0.4082 -1.09555e-005 -2.47659e-007 -1.00079e-005 -0.916 -9.2044 0.2193 -6.54579e-006 2.3049e-006 -8.44863e-006 -0.0117 -4.1944 -0.0248 0.0129464 0.00232053 -8.04116e-005 -0.0071 -2.3249 -0.0142 4.75387e-006 -5.97734e-006 -9.4763e-007 -0.6113 -8.7231 -2.0637 -6.54579e-006 2.3049e-006 -8.44863e-006 0.1927 -3.8059 -0.2383 0.0163437 0.00303054 -0.000857546 0.1091 -2.1688 -0.1362 -3.16919e-006 5.75954e-007 6.31699e-007 0.6151 -8.0947 -3.564 -6.54579e-006 2.3049e-006 -8.44863e-006 0.4882 -2.341 -0.6462 0.014608 0.00368743 -0.00325806 0.3574 -1.7166 -0.4742 2.81945e-007 -3.59849e-006 -2.54225e-006 1.4199 -1.8761 1.4221 -6.54579e-006 2.3049e-006 -8.44863e-006 1.1472 -3.4929 2.6336 9.37079e-006 1.74487e-006 1.03238e-005 0.8229 -2.3 1.6571 -1.09555e-005 -2.47659e-007 -1.00079e-005 -9.412 3.9771 -0.7758 -46.8012 -9.55808 7.63902 -0.7531 -40.938 0 179.905 39.7501 175.039 -8.88178e-016 -40.1986 0 -1.73017 12.4339 -3.15999 4.44089e-016 -4.4182 9.239 1.59028e-015 -9.54166e-015 -4.77083e-015 9.4119 3.9773 -0.7758 40.259 -20.9738 -0.662932 0.7532 -40.9383 -3.55271e-015 -179.84 32.3286 -173.429 0 -40.1986 0 -2.01449 39.5398 5.61774 1.77636e-015 -4.4182 9.239 -5.27661e-008 1.18974e-005 7.5438e-006 
